ply
format ascii 1.0
element vertex 92
property float x
property float y
property float z
property float u
property float v
property float nx
property float ny
property float nz
element face 180
property list uchar int vertex_indices
end_header
-0.788597 1.27598 0 0.838104 1.2854 -0.525731 0.850651 0
0.788597 1.27598 0 0.661896 1.2854 0.525731 0.850651 0
-0.788597 -1.27598 0 0.161896 1.2854 -0.525731 -0.850651 0
0.788597 -1.27598 0 0.338104 1.2854 0.525731 -0.850651 0
0 -0.788597 1.27598 0.25 0.776787 0 -0.525731 0.850651
0 0.788597 1.27598 0.75 0.776787 0 0.525731 0.850651
0 -0.788597 -1.27598 0.25 1.79401 0 -0.525731 -0.850651
0 0.788597 -1.27598 0.75 1.79401 0 0.525731 -0.850651
1.27598 0 -0.788597 0.5 1.56219 0.850651 0 -0.525731
1.27598 0 0.788597 0.5 1.00861 0.850651 0 0.525731
-1.27598 0 -0.788597 1 1.56219 -0.850651 0 -0.525731
-1.27598 0 0.788597 1 1.00861 -0.850651 0 0.525731
-0.458794 0.458794 0.458794 0.875 0.977658 -0.57735 0.57735 0.57735
-0.634038 0.567101 0.175244 0.88386 1.18381 -0.422693 0.129579 0.896961
-0.742344 0.28355 0.350487 0.94193 1.0777 -0.683932 0.554352 -0.474268
-0.567101 0.175244 0.634038 0.9523 0.876218 -0.129579 0.896961 0.422693
-0.28355 0.350487 0.742344 0.85826 0.772884 -0.554353 -0.474268 0.683932
-0.175244 0.634038 0.567101 0.792918 0.929659 -0.896961 0.422693 0.129579
-0.350487 0.742344 0.28355 0.820205 1.11911 0.474268 0.683932 0.554352
0 0.742344 0.28355 0.75 1.10297 0 0.934172 0.356822
0.175244 0.634038 0.567101 0.707082 0.929659 0 0.977046 -0.213029
0.350487 0.742344 0.28355 0.679795 1.11911 0.422693 0.129579 0.896961
0.175244 0.850651 0 0.717665 1.2854 -0.474268 0.683932 0.554353
-0.175244 0.850651 0 0.782335 1.2854 0.474268 0.683932 -0.554352
0 0.742344 -0.28355 0.75 1.46783 0 0.934172 -0.356822
0.350487 0.742344 -0.28355 0.679795 1.45169 -0.474268 0.683932 -0.554353
0.175244 0.634038 -0.567101 0.707082 1.64114 0.896961 0.422693 -0.129579
-0.175244 0.634038 -0.567101 0.792918 1.64114 1.75798e-07 0.977046 0.213029
-0.350487 0.742344 -0.28355 0.820205 1.45169 -0.422693 0.129579 -0.896961
-0.458794 0.458794 -0.458794 0.875 1.59314 -0.57735 0.57735 -0.57735
-0.28355 0.350487 -0.742344 0.85826 1.79791 -0.896961 0.422693 -0.12958
-0.567101 0.175244 -0.634038 0.9523 1.69458 0.213029 1.75798e-07 -0.977046
-0.742344 0.28355 -0.350487 0.94193 1.49309 -0.129579 0.896961 -0.422693
-0.634038 0.567101 -0.175244 0.88386 1.38698 -0.977046 -0.213029 -1.75798e-07
-0.742344 0.28355 0 0.94193 1.2854 -0.934172 0.356822 0
-0.850651 0 -0.175244 1 1.38698 -0.683932 0.554353 0.474268
-0.850651 0 0.175244 1 1.18381 -0.683932 -0.554353 -0.474268
0.458794 -0.458794 0.458794 0.375 0.977658 0.57735 -0.57735 0.57735
0.634038 -0.567101 0.175244 0.38386 1.18381 0.422693 -0.12958 0.896961
0.742344 -0.28355 0.350487 0.44193 1.0777 0.683932 -0.554352 -0.474268
0.567101 -0.175244 0.634038 0.4523 0.876218 0.129579 -0.896961 0.422693
0.28355 -0.350487 0.742344 0.35826 0.772884 0.554352 0.474268 0.683932
0.175244 -0.634038 0.567101 0.292918 0.929659 0.896961 -0.422693 0.129579
0.350487 -0.742344 0.28355 0.320205 1.11911 -0.474268 -0.683932 0.554353
0 -0.742344 0.28355 0.25 1.10297 0 -0.934172 0.356822
-0.175244 -0.634038 0.567101 0.207082 0.929659 0 -0.977046 -0.213029
-0.350487 -0.742344 0.28355 0.179795 1.11911 -0.422693 -0.129579 0.896961
-0.175244 -0.850651 0 0.217665 1.2854 0.474268 -0.683932 0.554353
0.175244 -0.850651 0 0.282335 1.2854 -0.474268 -0.683932 -0.554353
0 -0.742344 -0.28355 0.25 1.46783 0 -0.934172 -0.356822
-0.350487 -0.742344 -0.28355 0.179795 1.45169 0.474268 -0.683932 -0.554353
-0.175244 -0.634038 -0.567101 0.207082 1.64114 -0.896961 -0.422693 -0.129579
0.175244 -0.634038 -0.567101 0.292918 1.64114 -1.75798e-07 -0.977046 0.213029
0.350487 -0.742344 -0.28355 0.320205 1.45169 0.422693 -0.129579 -0.896961
0.458794 -0.458794 -0.458794 0.375 1.59314 0.57735 -0.57735 -0.57735
0.28355 -0.350487 -0.742344 0.35826 1.79791 0.896961 -0.422693 -0.12958
0.567101 -0.175244 -0.634038 0.4523 1.69458 -0.213029 0 -0.977046
0.742344 -0.28355 -0.350487 0.44193 1.49309 0.129579 -0.896961 -0.422693
0.634038 -0.567101 -0.175244 0.38386 1.38698 0.977046 0.213029 -1.75798e-07
0.742344 -0.28355 0 0.44193 1.2854 0.934172 -0.356822 0
0.850651 0 -0.175244 0.5 1.38698 0.683932 -0.554353 0.474268
0.850651 0 0.175244 0.5 1.18381 0.683932 0.554352 -0.474268
0.28355 0 0.742344 0.5 0.682432 0.356822 0 0.934172
0.567101 0.175244 0.634038 0.5477 0.876218 -0.213029 0 0.977046
0.28355 0.350487 0.742344 0.64174 0.772884 0.896961 0.422693 0.129579
0 0.175244 0.850651 0.75 0.601584 0.554353 -0.474268 0.683932
0 -0.175244 0.850651 0.25 0.601584 -0.554353 0.474268 0.683932
-0.458794 -0.458794 0.458794 0.125 0.977658 -0.57735 -0.57735 0.57735
-0.28355 -0.350487 0.742344 0.14174 0.772884 -0.896961 -0.422693 0.12958
-0.567101 -0.175244 0.634038 0.0477001 0.876218 0.213029 -1.75798e-07 0.977046
-0.742344 -0.28355 0.350487 0.0580699 1.0777 -0.129579 -0.896961 0.422693
-0.634038 -0.567101 0.175244 0.11614 1.18381 -0.977046 0.213029 1.75798e-07
-0.458794 -0.458794 -0.458794 0.125 1.59314 -0.57735 -0.57735 -0.57735
-0.634038 -0.567101 -0.175244 0.11614 1.38698 -0.422693 -0.12958 -0.896961
-0.742344 -0.28355 -0.350487 0.0580699 1.49309 -0.683932 -0.554353 0.474268
-0.567101 -0.175244 -0.634038 0.0477001 1.69458 -0.129579 -0.896961 -0.422693
-0.28355 -0.350487 -0.742344 0.14174 1.79791 -0.554353 0.474268 -0.683932
0.28355 0 -0.742344 0.5 1.88836 0.356822 0 -0.934172
0 -0.175244 -0.850651 0.25 1.96921 0.554353 0.474268 -0.683932
0 0.175244 -0.850651 0.75 1.96921 -0.554353 -0.474268 -0.683932
0.28355 0.350487 -0.742344 0.64174 1.79791 0.554353 -0.474268 -0.683932
0.567101 0.175244 -0.634038 0.5477 1.69458 0.129579 0.896961 -0.422693
0.742344 0.28355 0 0.55807 1.2854 0.934172 0.356822 0
0.742344 0.28355 -0.350487 0.55807 1.49309 0.683932 0.554353 0.474268
0.634038 0.567101 -0.175244 0.61614 1.38698 0.422693 0.129579 -0.896961
0.634038 0.567101 0.175244 0.61614 1.18381 0.977046 -0.213029 -1.75798e-07
0.742344 0.28355 0.350487 0.55807 1.0777 0.129579 0.896961 0.422693
0.458794 0.458794 0.458794 0.625 0.977658 0.57735 0.57735 0.57735
-0.28355 0 0.742344 1 0.682432 -0.356822 0 0.934172
-0.742344 -0.28355 0 0.0580699 1.2854 -0.934172 -0.356822 0
-0.28355 0 -0.742344 1 1.88836 -0.356822 0 -0.934172
0.458794 0.458794 -0.458794 0.625 1.59314 0.57735 0.57735 -0.57735
3 12 13 14
3 12 15 16
3 12 14 15
3 12 17 18
3 12 16 17
3 12 18 13
3 19 18 17
3 19 20 21
3 19 17 20
3 19 22 23
3 19 21 22
3 19 23 18
3 24 23 22
3 24 25 26
3 24 22 25
3 24 27 28
3 24 26 27
3 24 28 23
3 29 28 27
3 29 30 31
3 29 27 30
3 29 32 33
3 29 31 32
3 29 33 28
3 34 33 32
3 34 35 36
3 34 32 35
3 34 14 13
3 34 36 14
3 34 13 33
3 37 38 39
3 37 40 41
3 37 39 40
3 37 42 43
3 37 41 42
3 37 43 38
3 44 43 42
3 44 45 46
3 44 42 45
3 44 47 48
3 44 46 47
3 44 48 43
3 49 48 47
3 49 50 51
3 49 47 50
3 49 52 53
3 49 51 52
3 49 53 48
3 54 53 52
3 54 55 56
3 54 52 55
3 54 57 58
3 54 56 57
3 54 58 53
3 59 58 57
3 59 60 61
3 59 57 60
3 59 39 38
3 59 61 39
3 59 38 58
3 62 41 40
3 62 63 64
3 62 40 63
3 62 65 66
3 62 64 65
3 62 66 41
3 67 46 45
3 67 68 69
3 67 45 68
3 67 70 71
3 67 69 70
3 67 71 46
3 72 51 50
3 72 73 74
3 72 50 73
3 72 75 76
3 72 74 75
3 72 76 51
3 77 56 55
3 77 78 79
3 77 55 78
3 77 80 81
3 77 79 80
3 77 81 56
3 82 61 60
3 82 83 84
3 82 60 83
3 82 85 86
3 82 84 85
3 82 86 61
3 87 21 20
3 87 64 63
3 87 20 64
3 87 86 85
3 87 63 86
3 87 85 21
3 88 16 15
3 88 69 68
3 88 15 69
3 88 66 65
3 88 68 66
3 88 65 16
3 89 36 35
3 89 74 73
3 89 35 74
3 89 71 70
3 89 73 71
3 89 70 36
3 90 31 30
3 90 79 78
3 90 30 79
3 90 76 75
3 90 78 76
3 90 75 31
3 91 26 25
3 91 84 83
3 91 25 84
3 91 81 80
3 91 83 81
3 91 80 26
3 13 18 0
3 18 23 0
3 23 28 0
3 28 33 0
3 33 13 0
3 22 21 1
3 25 22 1
3 85 84 1
3 21 85 1
3 84 25 1
3 47 46 2
3 50 47 2
3 46 71 2
3 73 50 2
3 71 73 2
3 38 43 3
3 43 48 3
3 48 53 3
3 53 58 3
3 58 38 3
3 42 41 4
3 45 42 4
3 41 66 4
3 68 45 4
3 66 68 4
3 17 16 5
3 20 17 5
3 65 64 5
3 64 20 5
3 16 65 5
3 52 51 6
3 55 52 6
3 51 76 6
3 78 55 6
3 76 78 6
3 27 26 7
3 30 27 7
3 80 79 7
3 79 30 7
3 26 80 7
3 57 56 8
3 60 57 8
3 56 81 8
3 83 60 8
3 81 83 8
3 40 39 9
3 39 61 9
3 63 40 9
3 61 86 9
3 86 63 9
3 32 31 10
3 35 32 10
3 75 74 10
3 74 35 10
3 31 75 10
3 15 14 11
3 14 36 11
3 70 69 11
3 69 15 11
3 36 70 11
